<svg width="880" height="608" viewBox="0 0 880 608" xmlns="http://www.w3.org/2000/svg">
  <rect width="880" height="608" rx="16" fill="#0a0a0a"/>
  <rect x="0.5" y="0.5" width="879" height="607" rx="15.5" fill="none" stroke="#ffffff" stroke-opacity="0.1"/>
  <text x="48" y="56" font-family="Geist, Inter, 'Segoe UI', system-ui, sans-serif" font-size="22" font-weight="600" fill="#fafafa">Color</text>
  <text x="48" y="80" font-family="Geist, Inter, 'Segoe UI', system-ui, sans-serif" font-size="14" fill="#737373">Light</text>
  <text x="472" y="80" font-family="Geist, Inter, 'Segoe UI', system-ui, sans-serif" font-size="14" fill="#737373">Dark</text>
  <path d="M440 48V576" stroke="#ffffff" stroke-opacity="0.08"/>
  
    <rect x="48" y="96" width="44" height="26" rx="8" fill="#0a0a0a"/>
    <rect x="48" y="96" width="44" height="26" rx="8" fill="#ffffff" stroke="#808080" stroke-opacity="0.35"/>
    <text x="108" y="114" font-family="'Geist Mono', 'JetBrains Mono', Consolas, monospace" font-size="14" fill="#a1a1a1">color.background  </text>
    <text x="292" y="114" font-family="'Geist Mono', 'JetBrains Mono', Consolas, monospace" font-size="14" fill="#737373">#ffffff</text>
    <rect x="48" y="136" width="44" height="26" rx="8" fill="#0a0a0a"/>
    <rect x="48" y="136" width="44" height="26" rx="8" fill="#0a0a0a" stroke="#808080" stroke-opacity="0.35"/>
    <text x="108" y="154" font-family="'Geist Mono', 'JetBrains Mono', Consolas, monospace" font-size="14" fill="#a1a1a1">color.foreground  </text>
    <text x="292" y="154" font-family="'Geist Mono', 'JetBrains Mono', Consolas, monospace" font-size="14" fill="#737373">#0a0a0a</text>
    <rect x="48" y="176" width="44" height="26" rx="8" fill="#0a0a0a"/>
    <rect x="48" y="176" width="44" height="26" rx="8" fill="#ffffff" stroke="#808080" stroke-opacity="0.35"/>
    <text x="108" y="194" font-family="'Geist Mono', 'JetBrains Mono', Consolas, monospace" font-size="14" fill="#a1a1a1">color.card        </text>
    <text x="292" y="194" font-family="'Geist Mono', 'JetBrains Mono', Consolas, monospace" font-size="14" fill="#737373">#ffffff</text>
    <rect x="48" y="216" width="44" height="26" rx="8" fill="#0a0a0a"/>
    <rect x="48" y="216" width="44" height="26" rx="8" fill="#ffffff" stroke="#808080" stroke-opacity="0.35"/>
    <text x="108" y="234" font-family="'Geist Mono', 'JetBrains Mono', Consolas, monospace" font-size="14" fill="#a1a1a1">color.popover     </text>
    <text x="292" y="234" font-family="'Geist Mono', 'JetBrains Mono', Consolas, monospace" font-size="14" fill="#737373">#ffffff</text>
    <rect x="48" y="256" width="44" height="26" rx="8" fill="#0a0a0a"/>
    <rect x="48" y="256" width="44" height="26" rx="8" fill="#171717" stroke="#808080" stroke-opacity="0.35"/>
    <text x="108" y="274" font-family="'Geist Mono', 'JetBrains Mono', Consolas, monospace" font-size="14" fill="#a1a1a1">color.primary     </text>
    <text x="292" y="274" font-family="'Geist Mono', 'JetBrains Mono', Consolas, monospace" font-size="14" fill="#737373">#171717</text>
    <rect x="48" y="296" width="44" height="26" rx="8" fill="#0a0a0a"/>
    <rect x="48" y="296" width="44" height="26" rx="8" fill="#f5f5f5" stroke="#808080" stroke-opacity="0.35"/>
    <text x="108" y="314" font-family="'Geist Mono', 'JetBrains Mono', Consolas, monospace" font-size="14" fill="#a1a1a1">color.secondary   </text>
    <text x="292" y="314" font-family="'Geist Mono', 'JetBrains Mono', Consolas, monospace" font-size="14" fill="#737373">#f5f5f5</text>
    <rect x="48" y="336" width="44" height="26" rx="8" fill="#0a0a0a"/>
    <rect x="48" y="336" width="44" height="26" rx="8" fill="#f5f5f5" stroke="#808080" stroke-opacity="0.35"/>
    <text x="108" y="354" font-family="'Geist Mono', 'JetBrains Mono', Consolas, monospace" font-size="14" fill="#a1a1a1">color.muted       </text>
    <text x="292" y="354" font-family="'Geist Mono', 'JetBrains Mono', Consolas, monospace" font-size="14" fill="#737373">#f5f5f5</text>
    <rect x="48" y="376" width="44" height="26" rx="8" fill="#0a0a0a"/>
    <rect x="48" y="376" width="44" height="26" rx="8" fill="#f5f5f5" stroke="#808080" stroke-opacity="0.35"/>
    <text x="108" y="394" font-family="'Geist Mono', 'JetBrains Mono', Consolas, monospace" font-size="14" fill="#a1a1a1">color.accent      </text>
    <text x="292" y="394" font-family="'Geist Mono', 'JetBrains Mono', Consolas, monospace" font-size="14" fill="#737373">#f5f5f5</text>
    <rect x="48" y="416" width="44" height="26" rx="8" fill="#0a0a0a"/>
    <rect x="48" y="416" width="44" height="26" rx="8" fill="#e7000b" stroke="#808080" stroke-opacity="0.35"/>
    <text x="108" y="434" font-family="'Geist Mono', 'JetBrains Mono', Consolas, monospace" font-size="14" fill="#a1a1a1">color.destructive </text>
    <text x="292" y="434" font-family="'Geist Mono', 'JetBrains Mono', Consolas, monospace" font-size="14" fill="#737373">#e7000b</text>
    <rect x="48" y="456" width="44" height="26" rx="8" fill="#0a0a0a"/>
    <rect x="48" y="456" width="44" height="26" rx="8" fill="#e5e5e5" stroke="#808080" stroke-opacity="0.35"/>
    <text x="108" y="474" font-family="'Geist Mono', 'JetBrains Mono', Consolas, monospace" font-size="14" fill="#a1a1a1">color.border      </text>
    <text x="292" y="474" font-family="'Geist Mono', 'JetBrains Mono', Consolas, monospace" font-size="14" fill="#737373">#e5e5e5</text>
    <rect x="48" y="496" width="44" height="26" rx="8" fill="#0a0a0a"/>
    <rect x="48" y="496" width="44" height="26" rx="8" fill="#e5e5e5" stroke="#808080" stroke-opacity="0.35"/>
    <text x="108" y="514" font-family="'Geist Mono', 'JetBrains Mono', Consolas, monospace" font-size="14" fill="#a1a1a1">color.input       </text>
    <text x="292" y="514" font-family="'Geist Mono', 'JetBrains Mono', Consolas, monospace" font-size="14" fill="#737373">#e5e5e5</text>
    <rect x="48" y="536" width="44" height="26" rx="8" fill="#0a0a0a"/>
    <rect x="48" y="536" width="44" height="26" rx="8" fill="#a1a1a1" stroke="#808080" stroke-opacity="0.35"/>
    <text x="108" y="554" font-family="'Geist Mono', 'JetBrains Mono', Consolas, monospace" font-size="14" fill="#a1a1a1">color.ring        </text>
    <text x="292" y="554" font-family="'Geist Mono', 'JetBrains Mono', Consolas, monospace" font-size="14" fill="#737373">#a1a1a1</text>
  
    <rect x="472" y="96" width="44" height="26" rx="8" fill="#0a0a0a"/>
    <rect x="472" y="96" width="44" height="26" rx="8" fill="#0a0a0a" stroke="#808080" stroke-opacity="0.35"/>
    <text x="532" y="114" font-family="'Geist Mono', 'JetBrains Mono', Consolas, monospace" font-size="14" fill="#a1a1a1">color.background  </text>
    <text x="716" y="114" font-family="'Geist Mono', 'JetBrains Mono', Consolas, monospace" font-size="14" fill="#737373">#0a0a0a</text>
    <rect x="472" y="136" width="44" height="26" rx="8" fill="#0a0a0a"/>
    <rect x="472" y="136" width="44" height="26" rx="8" fill="#fafafa" stroke="#808080" stroke-opacity="0.35"/>
    <text x="532" y="154" font-family="'Geist Mono', 'JetBrains Mono', Consolas, monospace" font-size="14" fill="#a1a1a1">color.foreground  </text>
    <text x="716" y="154" font-family="'Geist Mono', 'JetBrains Mono', Consolas, monospace" font-size="14" fill="#737373">#fafafa</text>
    <rect x="472" y="176" width="44" height="26" rx="8" fill="#0a0a0a"/>
    <rect x="472" y="176" width="44" height="26" rx="8" fill="#171717" stroke="#808080" stroke-opacity="0.35"/>
    <text x="532" y="194" font-family="'Geist Mono', 'JetBrains Mono', Consolas, monospace" font-size="14" fill="#a1a1a1">color.card        </text>
    <text x="716" y="194" font-family="'Geist Mono', 'JetBrains Mono', Consolas, monospace" font-size="14" fill="#737373">#171717</text>
    <rect x="472" y="216" width="44" height="26" rx="8" fill="#0a0a0a"/>
    <rect x="472" y="216" width="44" height="26" rx="8" fill="#171717" stroke="#808080" stroke-opacity="0.35"/>
    <text x="532" y="234" font-family="'Geist Mono', 'JetBrains Mono', Consolas, monospace" font-size="14" fill="#a1a1a1">color.popover     </text>
    <text x="716" y="234" font-family="'Geist Mono', 'JetBrains Mono', Consolas, monospace" font-size="14" fill="#737373">#171717</text>
    <rect x="472" y="256" width="44" height="26" rx="8" fill="#0a0a0a"/>
    <rect x="472" y="256" width="44" height="26" rx="8" fill="#e5e5e5" stroke="#808080" stroke-opacity="0.35"/>
    <text x="532" y="274" font-family="'Geist Mono', 'JetBrains Mono', Consolas, monospace" font-size="14" fill="#a1a1a1">color.primary     </text>
    <text x="716" y="274" font-family="'Geist Mono', 'JetBrains Mono', Consolas, monospace" font-size="14" fill="#737373">#e5e5e5</text>
    <rect x="472" y="296" width="44" height="26" rx="8" fill="#0a0a0a"/>
    <rect x="472" y="296" width="44" height="26" rx="8" fill="#262626" stroke="#808080" stroke-opacity="0.35"/>
    <text x="532" y="314" font-family="'Geist Mono', 'JetBrains Mono', Consolas, monospace" font-size="14" fill="#a1a1a1">color.secondary   </text>
    <text x="716" y="314" font-family="'Geist Mono', 'JetBrains Mono', Consolas, monospace" font-size="14" fill="#737373">#262626</text>
    <rect x="472" y="336" width="44" height="26" rx="8" fill="#0a0a0a"/>
    <rect x="472" y="336" width="44" height="26" rx="8" fill="#262626" stroke="#808080" stroke-opacity="0.35"/>
    <text x="532" y="354" font-family="'Geist Mono', 'JetBrains Mono', Consolas, monospace" font-size="14" fill="#a1a1a1">color.muted       </text>
    <text x="716" y="354" font-family="'Geist Mono', 'JetBrains Mono', Consolas, monospace" font-size="14" fill="#737373">#262626</text>
    <rect x="472" y="376" width="44" height="26" rx="8" fill="#0a0a0a"/>
    <rect x="472" y="376" width="44" height="26" rx="8" fill="#262626" stroke="#808080" stroke-opacity="0.35"/>
    <text x="532" y="394" font-family="'Geist Mono', 'JetBrains Mono', Consolas, monospace" font-size="14" fill="#a1a1a1">color.accent      </text>
    <text x="716" y="394" font-family="'Geist Mono', 'JetBrains Mono', Consolas, monospace" font-size="14" fill="#737373">#262626</text>
    <rect x="472" y="416" width="44" height="26" rx="8" fill="#0a0a0a"/>
    <rect x="472" y="416" width="44" height="26" rx="8" fill="#ff6467" stroke="#808080" stroke-opacity="0.35"/>
    <text x="532" y="434" font-family="'Geist Mono', 'JetBrains Mono', Consolas, monospace" font-size="14" fill="#a1a1a1">color.destructive </text>
    <text x="716" y="434" font-family="'Geist Mono', 'JetBrains Mono', Consolas, monospace" font-size="14" fill="#737373">#ff6467</text>
    <rect x="472" y="456" width="44" height="26" rx="8" fill="#0a0a0a"/>
    <rect x="472" y="456" width="44" height="26" rx="8" fill="#ffffff1a" stroke="#808080" stroke-opacity="0.35"/>
    <text x="532" y="474" font-family="'Geist Mono', 'JetBrains Mono', Consolas, monospace" font-size="14" fill="#a1a1a1">color.border      </text>
    <text x="716" y="474" font-family="'Geist Mono', 'JetBrains Mono', Consolas, monospace" font-size="14" fill="#737373">#ffffff1a</text>
    <rect x="472" y="496" width="44" height="26" rx="8" fill="#0a0a0a"/>
    <rect x="472" y="496" width="44" height="26" rx="8" fill="#ffffff26" stroke="#808080" stroke-opacity="0.35"/>
    <text x="532" y="514" font-family="'Geist Mono', 'JetBrains Mono', Consolas, monospace" font-size="14" fill="#a1a1a1">color.input       </text>
    <text x="716" y="514" font-family="'Geist Mono', 'JetBrains Mono', Consolas, monospace" font-size="14" fill="#737373">#ffffff26</text>
    <rect x="472" y="536" width="44" height="26" rx="8" fill="#0a0a0a"/>
    <rect x="472" y="536" width="44" height="26" rx="8" fill="#737373" stroke="#808080" stroke-opacity="0.35"/>
    <text x="532" y="554" font-family="'Geist Mono', 'JetBrains Mono', Consolas, monospace" font-size="14" fill="#a1a1a1">color.ring        </text>
    <text x="716" y="554" font-family="'Geist Mono', 'JetBrains Mono', Consolas, monospace" font-size="14" fill="#737373">#737373</text>
</svg>
